<svg width="14" height="17" viewBox="0 0 14 17" fill="none" xmlns="http://www.w3.org/2000/svg">
<g id="Capa_1" clip-path="url(#clip0_291_420)">
<path id="Vector" d="M7.90534 0C8.17046 0.0642492 8.44361 0.104405 8.69668 0.196763C9.84151 0.618399 10.5726 1.42553 10.894 2.60209C10.9261 2.72256 10.9743 2.75067 11.0908 2.75067C11.7335 2.74665 12.3802 2.74665 13.0229 2.75067C13.5371 2.75468 13.8745 3.20845 13.7098 3.67024C13.6134 3.9433 13.3644 4.11998 13.0711 4.12801C12.8462 4.13203 12.6212 4.12801 12.3802 4.12801V4.34485C12.3802 7.22804 12.3923 10.1112 12.3762 12.9944C12.3682 14.5002 11.6491 15.5885 10.2794 16.2229C9.84553 16.4237 9.37956 16.5 8.90155 16.5C7.55989 16.5 6.21421 16.5 4.87255 16.5C2.89621 16.5 1.38183 14.9861 1.37781 13.0105C1.37379 10.2397 1.37781 7.46897 1.37781 4.69822C1.37781 4.51752 1.37781 4.33281 1.37781 4.124C1.14884 4.124 0.923894 4.124 0.702962 4.124C0.269132 4.11597 -0.0281218 3.77866 0.0160646 3.34899C0.0522171 3.00365 0.345454 2.75067 0.735098 2.74665C1.37379 2.74665 2.01249 2.74264 2.65118 2.74665C2.77972 2.74665 2.83194 2.71854 2.86809 2.58202C3.20954 1.2127 4.35035 0.20881 5.75226 0.028109C5.7844 0.028109 5.81251 0.00803115 5.84063 0C6.52753 0 7.21443 0 7.90534 0ZM2.74759 4.12801V4.29667C2.74759 7.20394 2.74759 10.1072 2.74759 13.0145C2.74759 14.2151 3.63935 15.1146 4.84041 15.1186C6.19412 15.1227 7.54784 15.1227 8.90155 15.1186C10.1106 15.1146 10.9984 14.2151 10.9984 13.0024C10.9984 10.1032 10.9984 7.20394 10.9984 4.30068C10.9984 4.24446 10.9984 4.18825 10.9984 4.12801H2.74759ZM9.47597 2.73862C9.47597 2.71453 9.47999 2.70248 9.47597 2.69445C9.47597 2.67839 9.46793 2.66233 9.4599 2.65028C9.11846 1.89134 8.53199 1.44962 7.70048 1.38939C7.17024 1.35325 6.63599 1.36128 6.10575 1.38537C5.27826 1.42151 4.68375 1.8311 4.31018 2.56997C4.28608 2.62217 4.27001 2.67437 4.24189 2.74264H9.46793L9.47597 2.73862Z" fill="white"/>
<path id="Vector_2" d="M4.80829 9.62115C4.80829 8.93448 4.80829 8.24782 4.80829 7.56116C4.80829 7.20779 5.0493 6.93874 5.39878 6.88252C5.72013 6.83032 6.04149 7.02307 6.14191 7.33628C6.17405 7.43266 6.18208 7.53706 6.1861 7.63745C6.1861 8.96259 6.1861 10.2877 6.1861 11.6129C6.1861 12.0626 5.89688 12.3758 5.49117 12.3718C5.08947 12.3718 4.81231 12.0586 4.81231 11.6169C4.81231 10.9503 4.81231 10.2877 4.81231 9.62115H4.80829Z" fill="white"/>
<path id="Vector_3" d="M8.93367 9.61725C8.93367 10.3079 8.93367 11.0026 8.93367 11.6933C8.93367 12.0346 8.68864 12.3077 8.35523 12.3639C8.03789 12.4161 7.71252 12.2274 7.60406 11.9142C7.57193 11.8258 7.55988 11.7254 7.55988 11.6291C7.55988 10.2879 7.55988 8.94665 7.55988 7.60545C7.55988 7.25208 7.75671 6.98303 8.05798 6.89469C8.3472 6.81438 8.66855 6.91879 8.81718 7.17578C8.88948 7.30027 8.93367 7.45687 8.93367 7.60143C8.94572 8.27203 8.93769 8.94264 8.93769 9.61324L8.93367 9.61725Z" fill="white"/>
</g>
<defs>
<clipPath id="clip0_291_420">
<rect width="13.75" height="16.5" fill="white"/>
</clipPath>
</defs>
</svg>
