<svg width="12" height="12" viewBox="0 0 12 12" fill="none" xmlns="http://www.w3.org/2000/svg">
<g id="Frame" clip-path="url(#clip0_150_24)">
<g id="Group">
<path id="Vector" d="M7.12555 0C7.15774 0.0134138 7.18725 0.0295104 7.21945 0.0429242C7.42065 0.131455 7.54406 0.343394 7.51992 0.552649C7.49309 0.775319 7.33212 0.952381 7.10945 0.98994C7.04775 1.00067 6.98605 1.00335 6.92434 1.00335C5.45955 1.00335 3.99745 1.00335 2.53266 1.00335C1.76002 1.00335 1.16177 1.50235 1.02495 2.25889C1.00885 2.34742 1.00617 2.43863 1.00617 2.52716C1.00617 4.84239 1.00348 7.15761 1.00617 9.47284C1.00617 10.2455 1.50784 10.8437 2.26438 10.9779C2.34755 10.994 2.43608 10.9966 2.52193 10.9966C4.15037 10.9966 5.7788 10.9966 7.40456 10.9966C7.43139 10.9966 7.45821 10.994 7.50382 10.9913C7.50382 10.9484 7.50382 10.9081 7.50382 10.8652C7.50382 10.2535 7.50382 9.63917 7.50382 9.0275C7.5065 8.15828 8.1611 7.50101 9.03031 7.49832C9.6393 7.49564 10.2483 7.49832 10.8573 7.49832C10.9002 7.49832 10.9431 7.49832 11.0021 7.49832C11.0021 7.44467 11.0021 7.40174 11.0021 7.35614C11.0021 6.57814 10.9995 5.80282 11.0021 5.02482C11.0021 4.68142 11.249 4.45607 11.5709 4.49631C11.7533 4.51777 11.8767 4.61972 11.9572 4.78337C11.9733 4.81288 11.9867 4.84507 12.0028 4.87458C12.0028 6.055 12.0028 7.23273 12.0028 8.41315C11.9948 8.43997 11.984 8.46412 11.9813 8.49095C11.9143 9.00872 11.7131 9.47015 11.3509 9.84842C10.8653 10.3555 10.369 10.8545 9.86197 11.34C9.41663 11.7666 8.86935 11.992 8.25231 11.9946C6.31536 12.0027 4.3784 12.008 2.44413 11.9946C1.12689 11.9866 0.0162275 10.8759 0.010862 9.55869C0.000130952 7.18981 0.00281371 4.81824 0.010862 2.44936C0.0135448 1.40845 0.713746 0.466801 1.70369 0.139504C1.88075 0.0778001 2.06854 0.045607 2.25365 0C3.87672 0 5.50248 0 7.12555 0ZM8.50181 10.951C8.77813 10.8947 9.00348 10.7767 9.19128 10.5942C9.66344 10.1301 10.1329 9.66063 10.5997 9.18846C10.7607 9.02482 10.868 8.82629 10.9351 8.60631C10.9458 8.57411 10.9458 8.54192 10.9539 8.50168C10.9136 8.50168 10.8868 8.50168 10.86 8.50168C10.2563 8.50168 9.65003 8.50168 9.04641 8.50168C8.70033 8.50168 8.50717 8.7002 8.50449 9.04896C8.50449 9.64185 8.50449 10.2347 8.50449 10.8276C8.50181 10.8652 8.50181 10.9028 8.50181 10.951Z" fill="#8EABAF"/>
<path id="Vector_2" d="M12 1.66334C11.9812 1.75992 11.9678 1.85381 11.9436 1.94771C11.8685 2.25086 11.7049 2.50304 11.4849 2.72303C9.60965 4.5956 7.73439 6.47085 5.86182 8.34342C5.71159 8.49365 5.56672 8.64388 5.4138 8.78875C4.94164 9.23946 4.38094 9.47822 3.72635 9.48896C3.49295 9.49432 3.25686 9.49164 3.02346 9.49164C2.71226 9.48896 2.50301 9.28775 2.50837 8.97923C2.51374 8.60901 2.50032 8.2361 2.5513 7.87125C2.62641 7.33201 2.90274 6.88668 3.28637 6.50572C4.7297 5.06776 6.16766 3.62444 7.61099 2.18379C8.17437 1.62041 8.73506 1.05703 9.30113 0.496334C9.89938 -0.0965567 10.8196 -0.139481 11.4581 0.397072C11.7585 0.649251 11.9222 0.976548 11.9785 1.36287C11.9839 1.40043 11.9946 1.43798 12 1.47554C12 1.53725 12 1.60163 12 1.66334ZM3.50368 8.48292C3.52514 8.49097 3.53319 8.49633 3.54123 8.49633C3.55733 8.49902 3.57343 8.49902 3.58684 8.49902C4.05096 8.50706 4.44533 8.34878 4.77531 8.0188C6.77396 6.01746 8.7753 4.01612 10.7766 2.01478C10.8035 1.98795 10.833 1.95844 10.8571 1.92893C11.1335 1.60163 10.9618 1.11069 10.5406 1.02484C10.3098 0.979231 10.1328 1.07045 9.9745 1.22873C7.97584 3.23007 5.9745 5.23141 3.97316 7.23275C3.9356 7.27031 3.89536 7.31055 3.86048 7.35079C3.58684 7.67809 3.47953 8.05904 3.50368 8.48292Z" fill="#8EABAF"/>
</g>
</g>
<defs>
<clipPath id="clip0_150_24">
<rect width="12" height="12" fill="white"/>
</clipPath>
</defs>
</svg>
