<svg width="70" height="66" viewBox="0 0 70 66" fill="none" xmlns="http://www.w3.org/2000/svg">
<g id="Frame">
<g id="Group">
<g id="Layer 1">
<g id="Group_2" style="mix-blend-mode:color-burn" opacity="0.5">
<g id="Group_3">
<path id="Vector" opacity="0.3" d="M66.057 32.2375C66.057 50.0507 51.5766 64.4751 33.7197 64.4751C15.8627 64.4751 1.38232 50.0507 1.38232 32.2375C1.38232 14.4244 15.8627 0 33.7197 0C51.5766 0 66.057 14.4357 66.057 32.2375Z" fill="#717372"/>
<g id="Clip path group">
<mask id="mask0_42_773" style="mask-type:luminance" maskUnits="userSpaceOnUse" x="1" y="0" width="66" height="65">
<g id="clippath">
<path id="Vector_2" d="M66.057 32.2375C66.057 50.0507 51.5766 64.4751 33.7197 64.4751C15.8627 64.4751 1.38232 50.0507 1.38232 32.2375C1.38232 14.4244 15.8627 0 33.7197 0C51.5766 0 66.057 14.4357 66.057 32.2375Z" fill="white"/>
</g>
</mask>
<g mask="url(#mask0_42_773)">
<g id="Group_4">
<path id="Vector_3" fill-rule="evenodd" clip-rule="evenodd" d="M69.8753 65.0399C69.4221 63.8538 68.7876 62.7582 68.0058 61.7642C66.7595 60.1828 65.1279 59.0645 63.3263 58.2174C62.8051 57.9689 62.2952 57.6752 61.7174 57.5396C59.9158 57.133 58.1369 56.6473 56.3694 56.1277C55.7462 56.1616 55.2023 55.9469 54.7151 55.5516C53.4008 55.0207 52.0298 54.6367 50.8061 53.8912C50.3755 53.8234 49.9676 53.7217 49.673 53.3716C49.4464 53.3151 49.2651 53.1682 49.0385 53.1005C48.404 52.9423 47.8715 52.626 47.4636 52.1065C47.2143 51.9483 46.965 51.8015 46.7271 51.6207C46.4325 51.4626 46.2625 51.2706 46.1719 50.9091C46.0699 50.446 45.9226 49.9829 45.798 49.5311C45.628 49.0792 45.628 48.5822 45.526 48.1078C45.4694 47.848 45.4014 47.6108 45.1068 47.5317C44.8236 47.3849 44.5516 47.5317 44.2797 47.5769C43.7358 47.6899 43.4412 47.5205 43.3506 46.9444C43.2939 46.5264 43.1806 46.1085 43.158 45.7019C43.1126 44.7869 42.9767 43.8155 43.8491 43.1491C44.8802 41.0707 45.6393 38.9019 46.2512 36.6767C46.3872 36.1797 46.6251 35.7505 47.2936 35.7392C47.6902 35.7392 48.0188 35.4455 48.1547 35.0163C48.5513 33.706 48.9252 32.3957 49.5371 31.1532C49.7297 30.2495 50.1716 29.4137 50.2169 28.4761C50.2169 28.2841 50.2622 28.1034 50.2395 27.9113C50.2169 27.8436 50.1829 27.7758 50.1376 27.708C50.1036 27.6854 50.0696 27.6628 50.0356 27.6403C50.0583 27.2449 50.0809 26.8383 50.0696 26.4429C50.0469 25.8894 49.775 25.4263 49.2311 25.2795C48.7213 25.1439 48.6306 24.8728 48.6646 24.421C48.7779 22.6589 48.8799 20.8968 48.9819 19.146C49.0045 19.0895 48.9932 19.033 48.9592 18.9766C48.9819 18.9427 48.9819 18.9088 48.9592 18.8749C48.9139 18.344 48.8572 17.8131 48.8006 17.2709C48.6533 15.9945 48.5173 14.7068 47.8488 13.5773C46.5571 11.3972 44.7669 9.72548 42.5008 8.58463C40.5859 7.61321 38.5125 7.1275 36.4276 6.72086C32.088 5.8511 28.2243 6.82252 24.8592 9.6916C24.8705 9.71419 24.8818 9.74807 24.8818 9.78196C24.4966 10.0305 24.202 10.3467 23.9867 10.7421C23.5901 11.4876 23.001 12.1088 22.3891 12.6736C21.2674 13.7241 20.6555 14.944 20.8255 16.4915C20.7802 16.5141 20.7462 16.5367 20.7009 16.5593C20.6442 16.6158 20.5989 16.6836 20.5649 16.7513C20.293 18.0051 20.6329 19.2589 20.6329 20.5128C20.9388 21.5745 20.9501 22.6702 21.0408 23.7546C21.0861 24.3532 20.9275 24.7599 20.3383 24.9519C19.6018 25.2117 19.3072 25.7991 19.2166 26.5107C19.1146 27.2449 19.0919 27.9904 19.2959 28.7246C19.5791 29.7525 19.8851 30.7917 20.2136 31.8083C20.7462 32.6668 21.0748 33.6269 21.2561 34.5983C21.3807 35.2422 21.6526 35.6036 22.2192 35.8182C22.6837 35.9877 22.933 36.304 23.0349 36.7784C23.2049 37.5352 23.4882 38.2468 23.7148 38.981C23.9867 39.5797 24.4286 40.0993 24.4286 40.7996C24.4286 40.8674 24.4513 40.9464 24.4853 41.0142C25.7656 43.0474 26.4454 45.171 25.607 47.5656C25.1651 48.0288 24.7459 47.543 24.304 47.5317C23.8734 47.5317 23.5108 47.4866 23.3975 48.0175C23.0689 49.0566 22.8877 50.1297 22.5591 51.1689C22.3778 51.7337 22.0945 52.1516 21.5506 52.4227C20.3609 53.0214 19.1599 53.5636 17.8796 53.925C17.0298 54.5237 15.9987 54.7157 15.0469 55.0659C13.1887 55.7436 11.2512 56.139 9.34767 56.6473C7.01358 57.2685 4.74748 58.0479 2.79863 59.5389C1.80154 60.7589 0.498529 61.7416 0.0113159 63.3342C0.0113159 64.012 0.0453075 64.6897 -1.4612e-05 65.3675C-0.0340062 65.887 0.113291 66.0113 0.645825 66.0113C23.6808 65.9887 46.7158 66 69.7507 66C70.0906 65.7176 70 65.4013 69.864 65.0512L69.8753 65.0399Z" fill="#717372"/>
</g>
</g>
</g>
</g>
</g>
</g>
</g>
</g>
</svg>
